<svg width="26" height="27" viewBox="0 0 26 27" fill="none" xmlns="http://www.w3.org/2000/svg">
<path d="M13 0.158203C10.4288 0.158203 7.91543 0.92064 5.77759 2.3491C3.63975 3.77756 1.97351 5.80788 0.989572 8.18332C0.0056327 10.5588 -0.251811 13.1726 0.249797 15.6944C0.751405 18.2161 1.98953 20.5325 3.80762 22.3506C5.6257 24.1687 7.94208 25.4068 10.4638 25.9084C12.9856 26.41 15.5995 26.1526 17.9749 25.1686C20.3503 24.1847 22.3807 22.5185 23.8091 20.3806C25.2376 18.2428 26 15.7294 26 13.1582C25.9964 9.71151 24.6256 6.40702 22.1884 3.96983C19.7512 1.53265 16.4467 0.161843 13 0.158203ZM14 24.112V16.1582H17C17.2652 16.1582 17.5196 16.0528 17.7071 15.8653C17.8946 15.6778 18 15.4234 18 15.1582C18 14.893 17.8946 14.6386 17.7071 14.4511C17.5196 14.2636 17.2652 14.1582 17 14.1582H14V11.1582C14 10.6278 14.2107 10.1191 14.5858 9.74399C14.9609 9.36892 15.4696 9.1582 16 9.1582H18C18.2652 9.1582 18.5196 9.05285 18.7071 8.86531C18.8946 8.67777 19 8.42342 19 8.1582C19 7.89299 18.8946 7.63863 18.7071 7.4511C18.5196 7.26356 18.2652 7.1582 18 7.1582H16C14.9391 7.1582 13.9217 7.57963 13.1716 8.32978C12.4214 9.07992 12 10.0973 12 11.1582V14.1582H9.00001C8.73479 14.1582 8.48044 14.2636 8.2929 14.4511C8.10536 14.6386 8.00001 14.893 8.00001 15.1582C8.00001 15.4234 8.10536 15.6778 8.2929 15.8653C8.48044 16.0528 8.73479 16.1582 9.00001 16.1582H12V24.112C9.181 23.8546 6.56971 22.5204 4.7093 20.3869C2.8489 18.2534 1.8826 15.4848 2.0114 12.657C2.1402 9.82919 3.35419 7.15989 5.40085 5.20434C7.44751 3.24878 10.1693 2.1575 13 2.1575C15.8307 2.1575 18.5525 3.24878 20.5992 5.20434C22.6458 7.15989 23.8598 9.82919 23.9886 12.657C24.1174 15.4848 23.1511 18.2534 21.2907 20.3869C19.4303 22.5204 16.819 23.8546 14 24.112Z" fill="#737373"/>
</svg>
