<svg width="26" height="26" viewBox="0 0 26 26" fill="none" xmlns="http://www.w3.org/2000/svg">
<path d="M19 6.30106H20.7143M7.85714 1.1582H18.1429C19.9615 1.1582 21.7056 1.88065 22.9916 3.16661C24.2776 4.45258 25 6.19672 25 8.01535V18.3011C25 20.1197 24.2776 21.8638 22.9916 23.1498C21.7056 24.4358 19.9615 25.1582 18.1429 25.1582H7.85714C6.03852 25.1582 4.29437 24.4358 3.00841 23.1498C1.72245 21.8638 1 20.1197 1 18.3011V8.01535C1 6.19672 1.72245 4.45258 3.00841 3.16661C4.29437 1.88065 6.03852 1.1582 7.85714 1.1582ZM13 18.3011C11.636 18.3011 10.3279 17.7592 9.36345 16.7948C8.39898 15.8303 7.85714 14.5222 7.85714 13.1582C7.85714 11.7942 8.39898 10.4861 9.36345 9.52165C10.3279 8.55718 11.636 8.01535 13 8.01535C14.364 8.01535 15.6721 8.55718 16.6365 9.52165C17.601 10.4861 18.1429 11.7942 18.1429 13.1582C18.1429 14.5222 17.601 15.8303 16.6365 16.7948C15.6721 17.7592 14.364 18.3011 13 18.3011Z" stroke="#737373" stroke-width="1.5"/>
</svg>
