<svg width="26" height="26" viewBox="0 0 26 26" fill="none" xmlns="http://www.w3.org/2000/svg">
<path d="M7.85714 10.5868V19.1582M18.1429 19.1582V14.8725C18.1429 13.9632 17.7816 13.0911 17.1387 12.4481C16.4957 11.8051 15.6236 11.4439 14.7143 11.4439C13.805 11.4439 12.9329 11.8051 12.2899 12.4481C11.6469 13.0911 11.2857 13.9632 11.2857 14.8725V19.1582V10.5868M7 8.01535H8.71429M2.71429 1.1582H23.2857C23.7404 1.1582 24.1764 1.33881 24.4979 1.66031C24.8194 1.9818 25 2.41783 25 2.87249V23.4439C25 23.8986 24.8194 24.3346 24.4979 24.6561C24.1764 24.9776 23.7404 25.1582 23.2857 25.1582H2.71429C2.25963 25.1582 1.82359 24.9776 1.5021 24.6561C1.18061 24.3346 1 23.8986 1 23.4439V2.87249C1 2.41783 1.18061 1.9818 1.5021 1.66031C1.82359 1.33881 2.25963 1.1582 2.71429 1.1582Z" stroke="#737373" stroke-width="1.5"/>
</svg>
