<svg width="20" height="20" viewBox="0 0 20 20" fill="none" xmlns="http://www.w3.org/2000/svg">
<path d="M18.1526 19.1582V6.09461C18.1526 5.10685 18.1526 4.61296 17.8686 4.19616C17.5846 3.77936 17.0614 3.5054 16.0152 2.95749L14.6839 2.26035C13.0414 1.40024 12.2201 0.970194 11.5864 1.23661C10.9526 1.50304 10.9526 2.27834 10.9526 3.82892V7.4582" stroke="#F58774" stroke-width="1.5" stroke-linejoin="round"/>
<path d="M19.0526 19.1582H1.05261" stroke="#F58774" stroke-width="1.5" stroke-linecap="round" stroke-linejoin="round"/>
<path d="M18.1526 6.55811H16.3526M18.1526 9.25811H16.3526M18.1526 11.9581H16.3526" stroke="#F58774" stroke-width="1.5" stroke-linecap="round" stroke-linejoin="round"/>
<path d="M6.45258 11.058C6.45258 9.36097 6.45258 8.51245 6.97979 7.98522C7.50699 7.45801 8.35554 7.45801 10.0526 7.45801C11.7496 7.45801 12.5981 7.45801 13.1254 7.98522C13.6526 8.51245 13.6526 9.36097 13.6526 11.058V19.158H6.45258V11.058Z" stroke="#F58774" stroke-width="1.5" stroke-linejoin="round"/>
<path d="M9.60263 11.0581H10.5026M9.60263 13.7581H10.5026" stroke="#F58774" stroke-width="1.5" stroke-linecap="round"/>
<path d="M2.40261 13.7582C3.1482 13.7582 3.75261 12.9523 3.75261 11.9582C3.75261 10.9641 3.1482 10.1582 2.40261 10.1582C1.65703 10.1582 1.05261 10.9641 1.05261 11.9582C1.05261 12.9523 1.65703 13.7582 2.40261 13.7582Z" stroke="#F58774" stroke-width="1.5"/>
<path d="M2.40265 13.7583V19.1583" stroke="#F58774" stroke-width="1.5" stroke-linecap="round"/>
</svg>
