<svg width="21" height="20" viewBox="0 0 21 20" fill="none" xmlns="http://www.w3.org/2000/svg">
<path d="M5.78946 5.89502L8.57664 7.5429C10.2015 8.5036 10.8511 8.5036 12.476 7.5429L15.2631 5.89502" stroke="#F58774" stroke-width="1.5" stroke-linecap="round" stroke-linejoin="round"/>
<path d="M9.10524 17.2635C8.66349 17.2577 8.22118 17.2493 7.77782 17.2381C4.79503 17.1631 3.30364 17.1256 2.23205 16.0493C1.16045 14.973 1.12948 13.5201 1.06755 10.6143C1.04764 9.67988 1.04763 8.75108 1.06754 7.81672C1.12948 4.91085 1.16044 3.45792 2.23204 2.38163C3.30364 1.30533 4.79503 1.26784 7.77781 1.19286C9.61616 1.14665 11.4364 1.14665 13.2748 1.19287C16.2576 1.26785 17.7489 1.30535 18.8205 2.38164C19.8922 3.45793 19.9231 4.91086 19.985 7.81673C19.9942 8.2469 19.9991 8.44962 19.9999 8.73715" stroke="#F58774" stroke-width="1.5" stroke-linecap="round" stroke-linejoin="round"/>
<path d="M17.1578 14.895C17.1578 15.6798 16.5216 16.316 15.7368 16.316C14.952 16.316 14.3157 15.6798 14.3157 14.895C14.3157 14.1102 14.952 13.4739 15.7368 13.4739C16.5216 13.4739 17.1578 14.1102 17.1578 14.895ZM17.1578 14.895V15.3687C17.1578 16.1535 17.7941 16.7897 18.5789 16.7897C19.3637 16.7897 19.9999 16.1535 19.9999 15.3687V14.895C19.9999 12.5405 18.0913 10.6318 15.7368 10.6318C13.3823 10.6318 11.4736 12.5405 11.4736 14.895C11.4736 17.2495 13.3823 19.1582 15.7368 19.1582" stroke="#F58774" stroke-width="1.5" stroke-linecap="round" stroke-linejoin="round"/>
</svg>
